<?xml version="1.0" standalone="no"?>
<!DOCTYPE svg PUBLIC "-//W3C//DTD SVG 1.1//EN" "http://www.w3.org/Graphics/SVG/1.1/DTD/svg11.dtd" >
<!--
2013-9-30: Created.
-->
<svg>
<metadata>
Created by iconfont
</metadata>
<defs>

<font id="iconfont" horiz-adv-x="1024" >
  <font-face
    font-family="iconfont"
    font-weight="500"
    font-stretch="normal"
    units-per-em="1024"
    ascent="896"
    descent="-128"
  />
    <missing-glyph />
    
    <glyph glyph-name="x" unicode="x" horiz-adv-x="1001"
d="M281 543q-27 -1 -53 -1h-83q-18 0 -36.5 -6t-32.5 -18.5t-23 -32t-9 -45.5v-76h912v41q0 16 -0.5 30t-0.5 18q0 13 -5 29t-17 29.5t-31.5 22.5t-49.5 9h-133v-97h-438v97zM955 310v-52q0 -23 0.5 -52t0.5 -58t-10.5 -47.5t-26 -30t-33 -16t-31.5 -4.5q-14 -1 -29.5 -0.5
t-29.5 0.5h-32l-45 128h-439l-44 -128h-29h-34q-20 0 -45 1q-25 0 -41 9.5t-25.5 23t-13.5 29.5t-4 30v167h911zM163 247q-12 0 -21 -8.5t-9 -21.5t9 -21.5t21 -8.5q13 0 22 8.5t9 21.5t-9 21.5t-22 8.5zM316 123q-8 -26 -14 -48q-5 -19 -10.5 -37t-7.5 -25t-3 -15t1 -14.5
t9.5 -10.5t21.5 -4h37h67h81h80h64h36q23 0 34 12t2 38q-5 13 -9.5 30.5t-9.5 34.5q-5 19 -11 39h-368zM336 498v228q0 11 2.5 23t10 21.5t20.5 15.5t34 6h188q31 0 51.5 -14.5t20.5 -52.5v-227h-327z" />
    

    
    <glyph glyph-name="iconjia" unicode="&#58911;" d="M902.947 228.973h-332.293v-332.346c0-32.387-26.267-58.628-58.655-58.628-32.387 0-58.654 26.241-58.654 58.628v332.346h-332.295c-32.414 0-58.654 26.241-58.654 58.628 0 32.375 26.243 58.628 58.654 58.628h332.293v332.346c0 32.375 26.267 58.628 58.654 58.628 32.388 0 58.655-26.254 58.655-58.628v-332.347h332.293c32.414 0 58.655-26.252 58.655-58.626-0.001-32.387-26.241-58.626-58.655-58.626z"  horiz-adv-x="1024" />

    
    <glyph glyph-name="back" unicode="&#58985;" d="M253.002342 246.042155l457.242779-441.255269c25.580016-22.382514 63.950039-22.382514 86.332553 0 22.382514 25.580016 22.382514 60.752537-3.197502 86.332553L358.519906 309.992194l415.675254 399.687744c25.580016 22.382514 25.580016 60.752537 0 83.135051s-63.950039 22.382514-86.332553 0L230.619828 351.559719c-25.580016-22.382514-25.580016-60.752537 0-83.135051"  horiz-adv-x="1024" />

    
    <glyph glyph-name="iconaddcircleoutline" unicode="&#58918;" d="M554.666667 515.594667l-85.333333 0 0-170.666667L298.666667 344.928l0-85.333333 170.666667 0 0-170.666667 85.333333 0 0 170.666667 170.666667 0 0 85.333333-170.666667 0L554.666667 515.594667zM512 728.928c-234.666667 0-426.666667-192-426.666667-426.666667s192-426.666667 426.666667-426.666667 426.666667 192 426.666667 426.666667S746.666667 728.928 512 728.928zM512-39.072c-187.733333 0-341.333333 153.6-341.333333 341.333333s153.6 341.333333 341.333333 341.333333 341.333333-153.6 341.333333-341.333333S699.733333-39.072 512-39.072z"  horiz-adv-x="1024" />

    
    <glyph glyph-name="iconremovecircleoutline" unicode="&#59167;" d="M298.666667 340.277333l0-85.333333 426.666667 0 0 85.333333L298.666667 340.277333zM512 724.277333c-234.666667 0-426.666667-192-426.666667-426.666667s192-426.666667 426.666667-426.666667 426.666667 192 426.666667 426.666667S746.666667 724.277333 512 724.277333zM512-43.722667c-187.733333 0-341.333333 153.6-341.333333 341.333333s153.6 341.333333 341.333333 341.333333 341.333333-153.6 341.333333-341.333333S699.733333-43.722667 512-43.722667z"  horiz-adv-x="1024" />

    
    <glyph glyph-name="iconfontzan1" unicode="&#58905;" d="M875.373 134.295 875.373 134.295c54.454 15.566 78.753 60.283 78.752 95.378 0 7.996-0.166 10.247-0.382 13.912l-0.329 5.801c-0.815 20.557-7.97 42.763-23.698 60.417 10.52 19.565 14.533 43.049 10.791 65.884-6.02 36.829-20.337 60.96-37.096 76.798 7.27 17.792 10.414 42.629-0.052 75.711-6.238 20.16-15.839 51.131-45.67 71.631 4.723 18.226 3.255 36.181-0.647 48.868-5.209 16.862-11.605 29.341-11.876 29.884-19.853 35.742-53.206 53.529-99.468 53.529l-151.81 0c-77.232 0-151.737-15.891-165.864-19.094-65.813-15.128-96.592-22.506-112.593-26.462-0.515-0.163-0.785-0.222-1.277-0.33-2.652-0.705-4.798-1.247-6.643-1.733-0.377-0.052-0.973-0.219-1.301-0.324-13.398 27.983-41.027 47.944-74.081 47.944l-83.309 0c-45.937 0-83.304-37.372-83.304-83.308l0-444.293c0-45.938 37.367-83.306 83.304-83.306l83.309 0c20.743 0 40.946 9.623 55.535 22.206l-1.463-1.248c2.845-1.271 22.396-10.899 29.23-14.508 93.176-48.973 110.449-145.564 111.072-201.483 0.571-45.584 37.968-82.655 83.309-82.655 64.23 0 136.796 87.756 136.796 187.385 0 41.709-1.301 65.192-6.938 91.249C759.039 125.293 840.66 125.189 875.373 134.295L875.373 134.295zM259.898 204.508c0-15.352-12.42-27.769-27.768-27.769l-83.31 0c-15.347 0-27.767 12.42-27.767 27.769L121.053 648.802c0 15.352 12.419 27.767 27.767 27.767l83.31 0c15.347 0 27.768-12.415 27.768-27.767L259.898 204.508zM897.939 247.136 897.939 247.136c0.376-9.327 0.653-7.946 0.653-17.463 0-8.681-2.603-33.847-32.974-42.525-24.516-6.425-22.563-10.409-300.248-10.409 23.051-68.611 25.703-80.002 25.703-145.842 0-72.919-51.903-131.85-81.259-131.85-17.354 0-27.605 14.484-27.768 27.769-1.141 94.59-39.757 209.785-166.615 262.313-1.683 0.706-4.012 1.404-5.724 2.088-13.745 4.146-22.043 15.92-22.043 28.936l0.215 383.524c0 20.5 23.487 24.46 23.487 24.46 7.24 2.058 13.313 4.118 128.674 30.694 1.949 0.434 77.6 17.734 153.854 17.734l151.804 0c28.637 0 42.144-9.106 50.546-24.241 0.162-0.381 4.285-8.73 7.755-20.013 3.146-10.303 1.735-39.049-28.635-39.049l-43.55 0c-7.701 0-13.884-6.239-13.884-13.884 0-7.701 6.183-13.885 13.884-13.885l45.283 0c59.063 0 64.488-25.98 73.329-54.006 6.725-21.313 10.848-57.055-36.014-57.055l-54.668 0c-7.702 0-13.885-6.235-13.885-13.884 0-7.698 6.183-13.884 13.885-13.884l65.95 0c46.913 0 56.622-39.16 60.04-59.879 2.711-16.647-2.765-51.207-44.422-51.207L787.51 315.578c-7.697 0-13.879-6.211-13.879-13.885s6.181-13.884 13.879-13.884l55.545 0C891.647 287.812 897.395 260.859 897.939 247.136L897.939 247.136zM190.472 565.496c22.998 0 41.657 18.655 41.657 41.653s-18.655 41.653-41.657 41.653c-22.993 0-41.653-18.655-41.653-41.653S167.479 565.496 190.472 565.496L190.472 565.496zM204.356 607.15c0-7.645-6.233-13.884-13.884-13.884-7.644 0-13.879 6.239-13.879 13.884 0 7.649 6.235 13.884 13.879 13.884C198.123 621.033 204.356 614.799 204.356 607.15z"  horiz-adv-x="1024" />

    
    <glyph glyph-name="back1" unicode="&#58904;" d="M710.144 774.282667c27.818667 0 51.882667-16.213333 62.805333-41.984 10.581333-25.258667 4.949333-54.101333-15.36-74.410667-53.930667-54.442667-108.032-108.885333-161.962667-163.328-43.861333-44.202667-87.722667-88.405333-131.584-132.608-19.114667-19.285333-38.229333-38.912-57.514667-58.026667-3.584-3.584-3.072-5.461333 0.170667-8.704 59.904-60.245333 119.808-120.490667 179.541333-180.906667 41.984-42.325333 83.968-84.650667 125.952-126.976 14.165333-14.336 28.501333-28.672 42.496-43.178667 19.456-19.968 26.282667-43.52 17.408-70.314667-8.874667-26.794667-28.330667-42.496-56.149333-46.250667-22.528-3.072-41.984 4.608-57.856 20.650667-37.376 37.717333-74.752 75.434667-112.128 113.152-62.122667 62.634667-124.245333 125.098667-186.197333 187.562667-29.184 29.354667-58.197333 58.709333-87.210667 88.064-4.096 4.096-8.362667 8.021333-12.8 11.776-29.696 24.917333-29.013333 77.482667 0.853333 102.058667 3.072 2.389333 5.973333 4.949333 8.533333 7.68 69.461333 69.802667 138.922667 139.776 208.213333 209.578667 42.666667 43.008 85.162667 85.845333 127.829333 128.853333 18.602667 18.773333 37.034667 37.546667 55.637333 56.32C674.816 767.626667 691.2 774.282667 710.144 774.282667z"  horiz-adv-x="1024" />

    
    <glyph glyph-name="gouwuche" unicode="&#58895;" d="M794.337343 246.387829l-575.726394 16.931624L76.893274 617.626945l770.270205 51.354622L794.337343 246.387829zM240.791112 295.063435l525.074783-15.445784 44.304042 354.441545-686.672228-45.774533L240.791112 295.063435zM747.725746-28.385235c-44.62843 0-80.941474 36.313044-80.941474 80.941474 0 44.62843 36.313044 80.941474 80.941474 80.941474s80.941474-36.313044 80.941474-80.941474C828.666196 7.927809 792.354176-28.385235 747.725746-28.385235zM747.725746 101.120304c-26.779923 0-48.565089-21.784142-48.565089-48.565089 0-26.779923 21.784142-48.565089 48.565089-48.565089s48.565089 21.784142 48.565089 48.565089C796.289812 79.336162 774.505669 101.120304 747.725746 101.120304zM278.266631-28.385235c-44.62843 0-80.941474 36.313044-80.941474 80.941474 0 44.62843 36.313044 80.941474 80.941474 80.941474s80.941474-36.313044 80.941474-80.941474C359.207082 7.927809 322.894038-28.385235 278.266631-28.385235zM278.266631 101.120304c-26.779923 0-48.565089-21.784142-48.565089-48.565089 0-26.779923 21.784142-48.565089 48.565089-48.565089s48.565089 21.784142 48.565089 48.565089C326.830697 79.336162 305.046554 101.120304 278.266631 101.120304zM844.633866 648.857227 812.69955 654.184559 830.492798 760.926652 936.862407 796.385235 947.106726 765.668653 859.217003 736.375489ZM747.725746 157.779745 732.691331 188.077795 756.460688 247.50221 794.337343 246.387829ZM201.25363 137.360693 193.396685 166.090015 262.077927 180.077587 735.278249 180.077587 735.278249 148.355095 264.070304 148.355095Z"  horiz-adv-x="1024" />

    
    <glyph glyph-name="anonymous-iconfont" unicode="&#58886;" d="M512 896C229.229714 896 0 666.770286 0 384 0 101.229714 229.229714-128 512-128 794.770286-128 1024 101.229714 1024 384 1024 666.770286 794.770286 896 512 896L512 896ZM805.668571 516.827429 474.550857 185.673143 474.514286 185.673143C459.264 170.386286 435.968 168.009143 418.194286 178.505143 414.902857 180.443429 411.830857 182.857143 408.978286 185.673143 408.978286 185.673143 408.978286 185.673143 408.978286 185.673143L218.331429 376.32C200.228571 394.422857 200.228571 423.753143 218.331429 441.856 236.434286 459.958857 265.764571 459.958857 283.867429 441.856L441.746286 283.977143 740.132571 582.363429C758.235429 600.429714 787.565714 600.429714 805.668571 582.363429 823.771429 564.260571 823.771429 534.893714 805.668571 516.827429L805.668571 516.827429Z"  horiz-adv-x="1024" />

    
    <glyph glyph-name="gouwuche-copy" unicode="&#58880;" d="M944.727 697.1c19.37 0 34.069-2.559 44.797-7.623 10.627-5.090 18.275-11.199 22.843-18.822 4.571-7.623 6.607-15.245 6.11-23.913-0.497-8.641-1.539-15.767-3.526-21.851l-13.261-37.644-21.851-62.548-24.434-67.639c-7.598-22.373-13.707-40.177-17.78-52.891-9.187-26.942-20.362-45.765-34.067-56.442-13.756-10.678-30.543-15.767-50.358-15.767h-541.567l15.742-91.529h519.219c33.075 0 49.862-13.732 49.862-41.716 0-13.707-3.577-25.427-10.229-35.087-6.060-9.658-19.27-14.75-38.638-14.75h-540.029c-13.757 0-25.427 3.056-34.614 9.164-9.137 6.109-16.787 14.253-22.894 23.913-6.606 9.66-11.174 20.337-15.246 32.032-3.526 11.695-6.605 22.373-8.641 32.554l-5.613 29.474-11.671 58.502-14.75 78.318-16.289 86.958-44.745 228.843h-77.326c-10.131 0-18.771 2.532-25.427 7.623-7.052 5.090-12.714 11.174-17.282 18.301-4.074 7.126-7.599 14.75-9.137 22.896-1.489 8.119-2.532 15.767-2.532 22.372 0 13.733 4.57 24.906 13.757 33.572 9.633 8.641 21.851 13.209 37.594 13.209h104.241c13.756 0 24.93-2.035 33.073-6.108 8.145-4.074 14.75-9.137 19.867-15.246 4.569-6.108 8.094-12.714 10.131-19.318l5.066-17.308c1.589-5.586 2.582-13.209 4.074-22.868l4.074-30.021 6.158-38.637h705.305zM771.308 119.401c13.21 0 25.924-2.557 37.644-7.127 12.217-4.569 22.348-11.197 31.040-19.839 8.64-8.641 15.742-18.301 20.809-29.996 5.115-11.696 7.647-23.913 7.647-36.626s-2.532-24.906-7.647-36.603c-5.067-11.694-12.169-21.354-20.809-30.019-8.691-8.642-18.823-15.247-31.040-20.338-11.719-5.090-24.434-7.623-37.644-7.623-12.714 0-25.427 2.532-37.099 7.623-11.67 5.090-21.901 11.695-30.045 20.338-8.642 8.667-15.745 18.325-20.809 30.019-5.116 11.696-7.649 23.889-7.649 36.603s2.533 24.93 7.649 36.626c5.065 11.694 12.166 21.354 20.809 29.996 8.144 8.642 18.375 15.271 30.045 19.839 11.671 4.571 24.385 7.127 37.099 7.127zM342.621 121.436c13.209 0 25.427-2.557 37.147-7.126 11.671-4.593 21.851-11.199 30.989-19.839 8.641-8.641 15.792-18.301 20.362-29.997 5.065-11.695 7.648-23.913 7.648-36.626s-2.582-24.905-7.648-36.602c-4.57-11.696-11.722-21.379-20.362-30.020-9.137-8.642-19.318-15.246-30.989-20.337-11.719-5.090-23.938-7.623-37.147-7.623-13.708 0-26.421 2.532-37.645 7.623-11.174 5.090-21.355 11.694-30.493 20.337-8.641 8.641-15.792 18.324-20.362 30.020-5.065 11.696-7.647 23.888-7.647 36.602s2.581 24.931 7.647 36.626c4.57 11.695 11.722 21.355 20.362 29.997 9.137 8.64 19.318 15.246 30.493 19.839 11.223 4.57 23.937 7.126 37.645 7.126z"  horiz-adv-x="1024" />

    
    <glyph glyph-name="iconfontaddcircleoutline" unicode="&#58943;" d="M512 41.984q139.989333 0 240.981333 100.992t100.992 240.981333-100.992 240.981333-240.981333 100.992-240.981333-100.992-100.992-240.981333 100.992-240.981333 240.981333-100.992zM512 809.984q176 0 301.013333-125.013333t125.013333-301.013333-125.013333-301.013333-301.013333-125.013333-301.013333 125.013333-125.013333 301.013333 125.013333 301.013333 301.013333 125.013333zM553.984 598.016l0-171.989333 171.989333 0 0-84.010667-171.989333 0 0-171.989333-84.010667 0 0 171.989333-171.989333 0 0 84.010667 171.989333 0 0 171.989333 84.010667 0z"  horiz-adv-x="1024" />

    
    <glyph glyph-name="check" unicode="&#58889;" d="M512 880c-278.336 0-504-225.664-504-504C8 97.664 233.664-128 512-128c278.336 0 504 225.664 504 504C1016 654.336 790.336 880 512 880zM475.328 126.72l-215.04 205.312 71.744 80.064 145.792-143.616 245.248 281.152 80.256-72.64L475.328 126.72z"  horiz-adv-x="1024" />

    
    <glyph glyph-name="close1" unicode="&#58935;" d="M512-25.6 512-25.6C738.215834-25.6 921.6 157.784166 921.6 384 921.6 610.215834 738.215834 793.6 512 793.6 285.784166 793.6 102.4 610.215834 102.4 384 102.4 157.784166 285.784166-25.6 512-25.6L512-25.6 512-25.6 512-25.6ZM512-128 512-128C229.230208-128 0 101.230208 0 384 0 666.769792 229.230208 896 512 896 794.769792 896 1024 666.769792 1024 384 1024 101.230208 794.769792-128 512-128L512-128 512-128 512-128ZM512 456.407734 367.181118 601.226616C347.218573 621.189161 314.77164 621.218047 294.776797 601.223203 274.822639 581.269045 274.780425 548.811841 294.773384 528.818882L439.592266 384 294.773384 239.181118C274.810839 219.218573 274.781953 186.77164 294.776797 166.776797 314.730955 146.822639 347.188159 146.780425 367.181118 166.773384L512 311.592266 656.818882 166.773384C676.781427 146.810839 709.22836 146.781953 729.223203 166.776797 749.177361 186.730955 749.219575 219.188159 729.226616 239.181118L584.407734 384 729.226616 528.818882C749.189161 548.781427 749.218047 581.22836 729.223203 601.223203 709.269045 621.177361 676.811841 621.219575 656.818882 601.226616L512 456.407734 512 456.407734Z"  horiz-adv-x="1024" />

    
    <glyph glyph-name="closecircleoutline" unicode="&#59216;" d="M512 42.666667C323.84 42.666667 170.666667 195.84 170.666667 384 170.666667 572.16 323.84 725.333333 512 725.333333 700.16 725.333333 853.333333 572.16 853.333333 384 853.333333 195.84 700.16 42.666667 512 42.666667M512 810.666667C276.053333 810.666667 85.333333 619.946667 85.333333 384 85.333333 148.053333 276.053333-42.666667 512-42.666667 747.946667-42.666667 938.666667 148.053333 938.666667 384 938.666667 619.946667 747.946667 810.666667 512 810.666667M622.506667 554.666667 512 444.16 401.493333 554.666667 341.333333 494.506667 451.84 384 341.333333 273.493333 401.493333 213.333333 512 323.84 622.506667 213.333333 682.666667 273.493333 572.16 384 682.666667 494.506667 622.506667 554.666667Z"  horiz-adv-x="1024" />

    
    <glyph glyph-name="aixin" unicode="&#59111;" d="M292.864 774.016c-148.608 0-269.12-118.208-269.12-264 0-39.168 9.28-76.032 24.832-109.376C49.024 399.552 48.96 398.72 49.408 397.696 50.048 396.16 51.2 394.432 51.904 392.896 52.672 391.232 53.504 389.632 54.4 387.968c79.744-166.656 457.28-471.68 457.6-472L512 661.696C463.552 729.472 383.808 774.016 292.864 774.016zM731.136 774.016c-90.944 0-170.688-44.48-219.136-112.32l0-745.664c0.384 0.32 377.856 305.344 457.6 472 0.896 1.6 1.664 3.264 2.496 4.928 0.704 1.536 1.792 3.264 2.496 4.8 0.384 1.024 0.384 1.856 0.768 2.88 15.616 33.408 24.896 70.272 24.896 109.376C1000.256 655.808 879.744 774.016 731.136 774.016z"  horiz-adv-x="1024" />

    
    <glyph glyph-name="close" unicode="&#58899;" d="M879.480512 831.979918c-22.23235 0-42.339294-9.080819-56.830333-23.728424l-0.007163 0.007163L511.706311 497.322975 200.77063 808.258657l-0.007163-0.007163c-14.492062 14.647605-34.597983 23.728424-56.830333 23.728424-44.155662 0-79.950913-35.795251-79.950913-79.950913 0-22.23235 9.080819-42.339294 23.728424-56.830333l-0.007163-0.007163 310.935682-310.935682L87.702458 73.319122l0.007163-0.007163c-14.647605-14.492062-23.728424-34.597983-23.728424-56.830333 0-44.155662 35.795251-79.950913 79.950913-79.950913 22.23235 0 42.339294 9.080819 56.830333 23.728424l0.007163-0.007163 310.935682 310.935682 310.935682-310.935682 0.007163 0.007163c14.492062-14.647605 34.597983-23.728424 56.830333-23.728424 44.155662 0 79.950913 35.795251 79.950913 79.950913 0 22.23235-9.080819 42.339294-23.728424 56.830333l0.007163 0.007163L624.77346 384.254803l310.935682 310.935682-0.007163 0.007163c14.647605 14.492062 23.728424 34.597983 23.728424 56.830333C959.431425 796.184667 923.635151 831.979918 879.480512 831.979918z"  horiz-adv-x="1024" />

    
    <glyph glyph-name="icon" unicode="&#58953;" d="M624.865 383.753l-292.155 292.159c-12.28 12.27-12.28 32.186 0 44.457 12.27 12.28 32.186 12.28 44.457 0l314.388-314.388c12.28-12.27 12.28-32.186 0-44.457l-314.388-314.387c-6.136-6.14-14.183-9.211-22.228-9.211s-16.092 3.071-22.228 9.211c-12.28 12.27-12.28 32.186 0 44.457l292.155 292.16z"  horiz-adv-x="1024" />

    
    <glyph glyph-name="checkedon" unicode="&#58900;" d="M511.99693 833.619254c-248.316505 0-449.617208-201.302749-449.617208-449.622324 0-248.316505 201.300702-449.617208 449.617208-449.617208 248.321622 0 449.622324 201.300702 449.622324 449.617208C961.619254 632.316505 760.318552 833.619254 511.99693 833.619254zM769.099543 530.476049 460.852086 228.606861c-1.562589-2.571568-3.441379-5.205559-5.966898-7.729032l-14.453177-14.458293c-7.973602-7.969509-17.379832-11.522428-20.989033-7.91118L272.63947 352.133222c-3.609201 3.604084-0.053212 12.994965 7.92039 20.983917l14.443967 14.449084c7.988951 7.983835 17.381879 11.531638 20.98187 7.927553l110.045325-115.15367 299.714106 293.496497c7.973602 7.971555 20.920472 7.971555 28.90226 0l14.453177-14.453177C777.073144 551.399591 777.073144 538.457838 769.099543 530.476049z"  horiz-adv-x="1024" />

    
    <glyph glyph-name="back2" unicode="&#58894;" d="M162.909091 384 749.381818 896 861.090909 798.487273 386.327273 384 861.090909-30.487273 749.381818-128Z"  horiz-adv-x="1024" />

    
    <glyph glyph-name="close2" unicode="&#59093;" d="M512-25.6 512-25.6C738.215834-25.6 921.6 157.784166 921.6 384 921.6 610.215834 738.215834 793.6 512 793.6 285.784166 793.6 102.4 610.215834 102.4 384 102.4 157.784166 285.784166-25.6 512-25.6L512-25.6 512-25.6 512-25.6ZM512-128 512-128C229.230208-128 0 101.230208 0 384 0 666.769792 229.230208 896 512 896 794.769792 896 1024 666.769792 1024 384 1024 101.230208 794.769792-128 512-128L512-128 512-128 512-128ZM512 456.407734 367.181118 601.226616C347.218573 621.189161 314.77164 621.218047 294.776797 601.223203 274.822639 581.269045 274.780425 548.811841 294.773384 528.818882L439.592266 384 294.773384 239.181118C274.810839 219.218573 274.781953 186.77164 294.776797 166.776797 314.730955 146.822639 347.188159 146.780425 367.181118 166.773384L512 311.592266 656.818882 166.773384C676.781427 146.810839 709.22836 146.781953 729.223203 166.776797 749.177361 186.730955 749.219575 219.188159 729.226616 239.181118L584.407734 384 729.226616 528.818882C749.189161 548.781427 749.218047 581.22836 729.223203 601.223203 709.269045 621.177361 676.811841 621.219575 656.818882 601.226616L512 456.407734 512 456.407734Z"  horiz-adv-x="1024" />

    
    <glyph glyph-name="cart" unicode="&#58915;" d="M1001.633684 701.278316c-221.076211 0.107789-442.152421 0.053895-663.228632 0.053895-17.300211 0-34.600421 0-53.301895 0-4.527158 31.043368-7.653053 56.589474-12.018526 81.973895C263.006316 841.620211 244.628211 857.411368 186.206316 858.219789c-30.666105 0.431158-61.332211 0.107789-91.998316 0C62.032842 858.112 35.247158 849.434947 33.953684 811.277474 32.768 775.760842 45.433263 747.142737 84.075789 739.435789 101.214316 735.986526 119.430737 735.393684 136.946526 736.579368c27.540211 1.940211 39.720421-7.491368 44.247579-36.540632 9.862737-63.649684 24.360421-126.544842 36.756211-189.817263 19.563789-99.597474 37.672421-199.518316 59.068632-298.738526 9.269895-42.954105 23.821474-88.602947 79.602526-88.980211 193.643789-1.347368 387.287579-0.269474 580.931368-0.700632 32.444632-0.053895 48.074105 17.030737 50.068211 46.565053 2.263579 33.145263-20.048842 44.840421-48.882526 47.373474-12.826947 1.131789-25.815579 0.970105-38.696421 0.970105-146.863158 0.053895-293.726316-0.754526-440.535579 0.323368-94.100211 0.700632-75.776-18.000842-94.369684 84.399158-0.485053 2.802526 1.509053 6.090105 3.826526 14.551579 15.898947 0 33.306947 0 50.714947 0 169.445053 0 338.890105 1.131789 508.335158-0.646737 53.301895-0.592842 85.099789 21.935158 102.076632 70.440421 21.773474 62.356211 44.139789 124.496842 66.021053 186.799158C1134.376421 681.660632 1120.094316 701.224421 1001.633684 701.278316zM394.24 88.656842c-53.301895 0.377263-98.627368-44.517053-98.573474-97.765053 0.053895-53.625263 43.654737-97.064421 98.465684-98.250105 56.427789-1.185684 103.693474 43.546947 103.693474 98.196211C497.879579 45.864421 453.039158 88.225684 394.24 88.656842zM853.962105 85.099789c-54.918737-0.323368-99.489684-44.247579-98.950737-97.603368 0.538947-52.978526 46.457263-96.956632 100.998737-96.687158 58.044632 0.269474 102.184421 44.624842 100.837053 101.214316C955.553684 45.702737 911.683368 85.423158 853.962105 85.099789z"  horiz-adv-x="1132" />

    
    <glyph glyph-name="close3" unicode="&#58923;" d="M934.956522 67.895652 614.4 388.452174l320.556522 320.556522c26.713043 26.713043 26.713043 71.234783 0 97.947826-26.713043 26.713043-71.234783 26.713043-97.947826 0l0 0L507.547826 486.4 186.991304 815.86087C160.278261 842.573913 115.756522 842.573913 89.043478 815.86087c0 0 0 0 0 0C62.330435 780.243478 62.330435 735.721739 89.043478 709.008696l320.556522-320.556522L89.043478 67.895652c-26.713043-26.713043-26.713043-71.234783 0-97.947826 26.713043-26.713043 71.234783-26.713043 97.947826 0 0 0 0 0 0 0l320.556522 320.556522 320.556522-320.556522c26.713043-26.713043 71.234783-26.713043 97.947826 0 0 0 0 0 0 0C961.669565-3.33913 961.669565 41.182609 934.956522 67.895652z"  horiz-adv-x="1042" />

    
    <glyph glyph-name="navig-fabiao-copy" unicode="&#58938;" d="M597.333 310.357h341.12c47.275 0 85.547 38.187 85.547 85.333 0 47.445-38.315 85.333-85.547 85.333l-341.12 0v329.429c0 47.275-38.187 85.547-85.333 85.547-47.445 0-85.333-38.315-85.333-85.547v-329.429h-341.12c-47.275 0-85.547-38.187-85.547-85.333 0-47.445 38.315-85.333 85.547-85.333l341.12-0v-352.811c0-47.275 38.187-85.547 85.333-85.547 47.445 0 85.333 38.315 85.333 85.547v352.811z"  horiz-adv-x="1024" />

    
    <glyph glyph-name="aixin1" unicode="&#58882;" d="M1302.907903 513.421293c0 152.496408-119.723057 276.232528-266.199869 276.232528-72.23514 0-141.126061-31.435663-190.62051-84.943174-49.494448 53.507511-118.385369 84.943174-190.620509 84.943174-147.145656 0-266.199869-123.73612-266.199869-276.232528 0-5.350751 0.668844-9.363815 0.668844-13.376878v-4.013063c0-26.753756 6.688439-56.851731 19.396472-88.287394 0.668844-1.337688 0.668844-2.006532 1.337688-3.344219 80.930111-194.633573 393.949053-418.696277 407.325931-429.397779 8.026127-6.019595 18.058785-9.363815 28.091443-9.363815s20.065317 3.344219 28.091444 10.032658c11.370346 8.694971 278.239059 200.653168 383.916395 382.578707 4.013063 6.019595 6.688439 12.03919 9.363814 17.389941 0.668844 1.337688 1.337688 3.344219 2.675376 4.681908l0.668843 0.668843c0.668844 0.668844 0.668844 1.337688 1.337688 2.006532 6.019595 12.03919 11.370346 24.07838 15.38341 34.779883 10.701502 28.760287 16.052253 54.176355 16.052253 78.254735v4.681907c-1.337688 4.013063-0.668844 8.026127-0.668844 12.708034z m0 0"  horiz-adv-x="1687" />

    
    <glyph glyph-name="aixin2" unicode="&#58884;" d="M968.32 519.04c0 152.064-119.36 275.904-265.92 275.904A260.096 260.096 0 0 1 512 710.4a260.16 260.16 0 0 1-190.336 84.544C174.976 794.944 55.68 671.168 55.68 519.104c0-5.184 0.448-9.6 0.832-13.376l-0.128-3.712c0-27.008 6.592-56.64 19.456-88 0.448-1.216 0.768-2.24 1.28-3.328 81.024-194.368 392.896-417.984 406.208-428.224a45.696 45.696 0 0 1 56.064 0.256c11.264 8.96 277.44 200.384 383.104 381.44 3.968 6.144 6.912 12.096 9.6 17.216 0.832 1.6 1.472 3.264 2.432 4.8l0.32 0.704 1.216 1.856c6.336 12.288 11.456 23.808 15.424 34.816 10.88 28.736 16.384 54.4 16.384 78.208a50.56 50.56 0 0 1-0.192 4.8c0.192 3.2 0.64 7.552 0.64 12.48z"  horiz-adv-x="1024" />

    
    <glyph glyph-name="jiahao" unicode="&#58892;" d="M763.902976 431.413248h-205.68064V637.085696c0 16.954368-13.746176 30.69952-30.700544 30.69952-16.956416 0-30.700544-13.745152-30.700544-30.69952v-205.672448H291.13856c-16.955392 0-30.700544-13.745152-30.700544-30.69952s13.745152-30.69952 30.69952-30.69952h205.682688V164.34176c0-16.953344 13.745152-30.69952 30.69952-30.69952 16.955392 0 30.701568 13.746176 30.701568 30.69952V370.014208h205.68064c16.954368 0 30.69952 13.745152 30.69952 30.69952s-13.744128 30.69952-30.69952 30.69952z"  horiz-adv-x="1024" />

    
    <glyph glyph-name="zan" unicode="&#58890;" d="M886.596 472.462h-238.584c92.44 341.453-63.707 358.898-63.707 358.898-66.202 0-52.461-52.34-57.459-61.061 0-166.986-177.372-297.837-177.372-297.837v-473.548c0-46.728 63.7-63.555 88.685-63.555h358.502c33.728 0 61.206 88.483 61.206 88.483 88.694 301.569 88.694 391.292 88.694 391.292 0 62.308-59.964 57.327-59.964 57.327v0zM251.567 472.307h-142.868c-29.513 0-29.979-28.977-29.979-28.977l29.513-477.592c0-30.378 30.445-30.378 30.445-30.378h123.663c25.763 0 25.53 20.095 25.53 20.095v480.636c0 36.682-36.303 36.216-36.303 36.216v0zM251.567 472.307z"  horiz-adv-x="1024" />

    
    <glyph glyph-name="aixin3" unicode="&#58893;" d="M1221.50579 552.27972C1221.50579 741.818182 1074.596699 896 894.344951 896c-89.062937 0-173.314685-38.937063-234.181818-105.286713C599.072224 857.062937 514.820476 896 425.869427 896 245.50579 896 98.708587 741.93007 98.708587 552.27972c0-6.377622 0.559441-12.083916 1.118882-16.671328-0.111888-1.566434-0.223776-3.020979-0.223777-4.699301 0-33.566434 8.055944-70.377622 23.832168-109.65035 0.559441-1.454545 1.006993-2.797203 1.566434-4.027972 99.692308-242.125874 483.468531-520.615385 499.804196-533.482517 10.181818-7.944056 22.153846-11.748252 34.34965-11.748252 12.307692 0 24.391608 4.027972 34.685315 12.083916 13.986014 11.076923 341.258741 249.51049 471.272727 475.300699 4.923077 7.608392 8.615385 14.993007 11.972028 21.37063 1.006993 2.013986 1.902098 4.027972 3.020979 6.041958l0.447552 0.895105c0.447552 0.783217 0.895105 1.566434 1.454546 2.237762 7.832168 15.328671 13.986014 29.65035 18.909091 43.524475 13.426573 35.804196 20.13986 67.58042 20.13986 97.342658 0 2.237762-0.111888 4.363636-0.223776 6.041958 0.223776 3.916084 0.671329 9.174825 0.671328 15.440559z"  horiz-adv-x="1644" />

    
    <glyph glyph-name="aixin4" unicode="&#58992;" d="M982.438 534.563c0 158.813-123.094 288-274.125 288-74.625 0-145.219-32.625-196.219-88.219-51.188 55.594-121.781 88.219-196.313 88.219-151.125 0-274.125-129.094-274.125-288 0-5.344 0.469-10.125 0.938-13.969-0.094-1.313-0.188-2.531-0.188-3.938 0-28.125 6.75-58.969 19.969-91.875 0.469-1.219 0.844-2.344 1.312-3.375 83.531-202.875 405.094-436.219 418.781-447 8.531-6.656 18.563-9.844 28.781-9.844 10.313 0 20.438 3.375 29.063 10.125 11.719 9.281 285.938 209.062 394.875 398.25 4.125 6.375 7.219 12.563 10.031 17.906 0.844 1.688 1.594 3.375 2.531 5.063l0.375 0.75c0.375 0.656 0.75 1.313 1.219 1.875 6.563 12.844 11.719 24.844 15.844 36.469 11.25 30 16.875 56.625 16.875 81.562 0 1.875-0.094 3.656-0.188 5.063 0.188 3.281 0.563 7.688 0.563 12.938z"  horiz-adv-x="1024" />

    
    <glyph glyph-name="remove_circle_outline" unicode="&#58888;" d="M21.333333 896v-1024M42.666667 896v-1024M64 896v-1024M85.333333 896v-1024M106.666667 896v-1024M128 896v-1024M149.333333 896v-1024M170.666667 896v-1024M192 896v-1024M213.333333 896v-1024M234.666667 896v-1024M256 896v-1024M277.333333 896v-1024M298.666667 896v-1024M320 896v-1024M341.333333 896v-1024M362.666667 896v-1024M384 896v-1024M405.333333 896v-1024M426.666667 896v-1024M448 896v-1024M469.333333 896v-1024M490.666667 896v-1024M512 896v-1024M533.333333 896v-1024M554.666667 896v-1024M576 896v-1024M597.333333 896v-1024M618.666667 896v-1024M640 896v-1024M661.333333 896v-1024M682.666667 896v-1024M704 896v-1024M725.333333 896v-1024M746.666667 896v-1024M768 896v-1024M789.333333 896v-1024M810.666667 896v-1024M832 896v-1024M853.333333 896v-1024M874.666667 896v-1024M896 896v-1024M917.333333 896v-1024M938.666667 896v-1024M960 896v-1024M981.333333 896v-1024M1002.666667 896v-1024M0 874.666667h1024M0 853.333333h1024M0 832h1024M0 810.666667h1024M0 789.333333h1024M0 768h1024M0 746.666667h1024M0 725.333333h1024M0 704h1024M0 682.666667h1024M0 661.333333h1024M0 640h1024M0 618.666667h1024M0 597.333333h1024M0 576h1024M0 554.666667h1024M0 533.333333h1024M0 512h1024M0 490.666667h1024M0 469.333333h1024M0 448h1024M0 426.666667h1024M0 405.333333h1024M0 384h1024M0 362.666667h1024M0 341.333333h1024M0 320h1024M0 298.666667h1024M0 277.333333h1024M0 256h1024M0 234.666667h1024M0 213.333333h1024M0 192h1024M0 170.666667h1024M0 149.333333h1024M0 128h1024M0 106.666667h1024M0 85.333333h1024M0 64h1024M0 42.666667h1024M0 21.333333h1024M0 0h1024M0-21.333333h1024M0-42.666667h1024M0-64h1024M0-85.333333h1024M0-106.666667h1024M512 42q140 0 241 101T854 384t-101 241T512 726t-241-101T170 384t101-241T512 42z m0 768q176 0 301-125T938 384t-125-301T512-42t-301 125T86 384t125 301T512 810z m-214-384h428v-84h-428v84z"  horiz-adv-x="1024" />

    
    <glyph glyph-name="thumb_down" unicode="&#58891;" d="M21.333333 896v-1024M42.666667 896v-1024M64 896v-1024M85.333333 896v-1024M106.666667 896v-1024M128 896v-1024M149.333333 896v-1024M170.666667 896v-1024M192 896v-1024M213.333333 896v-1024M234.666667 896v-1024M256 896v-1024M277.333333 896v-1024M298.666667 896v-1024M320 896v-1024M341.333333 896v-1024M362.666667 896v-1024M384 896v-1024M405.333333 896v-1024M426.666667 896v-1024M448 896v-1024M469.333333 896v-1024M490.666667 896v-1024M512 896v-1024M533.333333 896v-1024M554.666667 896v-1024M576 896v-1024M597.333333 896v-1024M618.666667 896v-1024M640 896v-1024M661.333333 896v-1024M682.666667 896v-1024M704 896v-1024M725.333333 896v-1024M746.666667 896v-1024M768 896v-1024M789.333333 896v-1024M810.666667 896v-1024M832 896v-1024M853.333333 896v-1024M874.666667 896v-1024M896 896v-1024M917.333333 896v-1024M938.666667 896v-1024M960 896v-1024M981.333333 896v-1024M1002.666667 896v-1024M0 874.666667h1024M0 853.333333h1024M0 832h1024M0 810.666667h1024M0 789.333333h1024M0 768h1024M0 746.666667h1024M0 725.333333h1024M0 704h1024M0 682.666667h1024M0 661.333333h1024M0 640h1024M0 618.666667h1024M0 597.333333h1024M0 576h1024M0 554.666667h1024M0 533.333333h1024M0 512h1024M0 490.666667h1024M0 469.333333h1024M0 448h1024M0 426.666667h1024M0 405.333333h1024M0 384h1024M0 362.666667h1024M0 341.333333h1024M0 320h1024M0 298.666667h1024M0 277.333333h1024M0 256h1024M0 234.666667h1024M0 213.333333h1024M0 192h1024M0 170.666667h1024M0 149.333333h1024M0 128h1024M0 106.666667h1024M0 85.333333h1024M0 64h1024M0 42.666667h1024M0 21.333333h1024M0 0h1024M0-21.333333h1024M0-42.666667h1024M0-64h1024M0-85.333333h1024M0-106.666667h1024M810 768h172v-512h-172V768zM640 768q34 0 60-26t26-60V256q0-34-26-60L420-86 374-40Q356-22 356 4v14l42 196H128q-34 0-60 25T42 298l2 4h-2V384q0 16 6 32l130 300q20 52 78 52h384z"  horiz-adv-x="1024" />

    
    <glyph glyph-name="jiahao1" unicode="&#58908;" d="M480 416H256c-16 0-32-12.8-32-32s12.8-32 32-32h224v-224c0-16 12.8-32 32-32s32 12.8 32 32v224h224c16 0 32 12.8 32 32s-12.8 32-32 32h-224V640c0 16-12.8 32-32 32s-32-12.8-32-32v-224z m32-544C230.4-128 0 102.4 0 384S230.4 896 512 896s512-230.4 512-512-230.4-512-512-512z"  horiz-adv-x="1024" />

    
    <glyph glyph-name="jiahao2" unicode="&#58964;" d="M512 896C229.242435 896 0 666.779826 0 384s229.242435-512 512-512 512 229.220174 512 512S794.757565 896 512 896z m267.130435-534.26087H534.26087v-244.869565h-44.52174V361.73913H244.869565v44.52174h244.869565V651.130435h44.52174v-244.869565h244.869565v-44.52174z"  horiz-adv-x="1024" />

    
    <glyph glyph-name="jianhao" unicode="&#58965;" d="M512 896C229.242435 896 0 666.779826 0 384s229.242435-512 512-512 512 229.220174 512 512S794.757565 896 512 896z m267.130435-534.26087H244.869565v44.52174h534.26087v-44.52174z"  horiz-adv-x="1024" />

    
    <glyph glyph-name="thumb_down1" unicode="&#58896;" d="M21.333333 896v-1024M42.666667 896v-1024M64 896v-1024M85.333333 896v-1024M106.666667 896v-1024M128 896v-1024M149.333333 896v-1024M170.666667 896v-1024M192 896v-1024M213.333333 896v-1024M234.666667 896v-1024M256 896v-1024M277.333333 896v-1024M298.666667 896v-1024M320 896v-1024M341.333333 896v-1024M362.666667 896v-1024M384 896v-1024M405.333333 896v-1024M426.666667 896v-1024M448 896v-1024M469.333333 896v-1024M490.666667 896v-1024M512 896v-1024M533.333333 896v-1024M554.666667 896v-1024M576 896v-1024M597.333333 896v-1024M618.666667 896v-1024M640 896v-1024M661.333333 896v-1024M682.666667 896v-1024M704 896v-1024M725.333333 896v-1024M746.666667 896v-1024M768 896v-1024M789.333333 896v-1024M810.666667 896v-1024M832 896v-1024M853.333333 896v-1024M874.666667 896v-1024M896 896v-1024M917.333333 896v-1024M938.666667 896v-1024M960 896v-1024M981.333333 896v-1024M1002.666667 896v-1024M0 874.666667h1024M0 853.333333h1024M0 832h1024M0 810.666667h1024M0 789.333333h1024M0 768h1024M0 746.666667h1024M0 725.333333h1024M0 704h1024M0 682.666667h1024M0 661.333333h1024M0 640h1024M0 618.666667h1024M0 597.333333h1024M0 576h1024M0 554.666667h1024M0 533.333333h1024M0 512h1024M0 490.666667h1024M0 469.333333h1024M0 448h1024M0 426.666667h1024M0 405.333333h1024M0 384h1024M0 362.666667h1024M0 341.333333h1024M0 320h1024M0 298.666667h1024M0 277.333333h1024M0 256h1024M0 234.666667h1024M0 213.333333h1024M0 192h1024M0 170.666667h1024M0 149.333333h1024M0 128h1024M0 106.666667h1024M0 85.333333h1024M0 64h1024M0 42.666667h1024M0 21.333333h1024M0 0h1024M0-21.333333h1024M0-42.666667h1024M0-64h1024M0-85.333333h1024M0-106.666667h1024M810 768h172v-512h-172V768zM640 768q34 0 60-26t26-60V256q0-34-26-60L420-86 374-40Q356-22 356 4v14l42 196H128q-34 0-60 25T42 298l2 4h-2V384q0 16 6 32l130 300q20 52 78 52h384z"  horiz-adv-x="1024" />

    
    <glyph glyph-name="check1" unicode="&#58919;" d="M510.305 883.754c-272.413 0-495.115-222.702-495.115-495.115s222.702-495.115 495.115-495.115 495.115 222.702 495.115 495.115-222.702 495.115-495.115 495.115zM806.577 535.783l-355.926-356.589c-2.652-2.652-5.966-4.64-9.28-6.627-1.326-0.662-2.652-1.987-4.64-2.652-5.302-1.987-11.267-3.314-16.57-3.314-5.966 0-11.267 1.326-16.57 3.314-1.987 0.662-3.314 1.987-4.64 2.652-3.314 1.987-6.627 3.314-9.942 6.627v0.662h-0.662l-174.318 178.294c-17.233 17.233-16.57 45.071 0.662 62.304 17.233 16.57 45.733 16.57 62.966-0.662l143.166-145.817 323.449 324.111c17.233 17.233 45.071 17.233 62.966 0 16.57-17.233 16.57-44.407-0.662-62.304z"  horiz-adv-x="1038" />

    
    <glyph glyph-name="jia" unicode="&#58954;" d="M512-62.7c-246.7 0-446.7 200-446.7 446.7S265.3 830.7 512 830.7s446.7-200 446.7-446.7-200-446.7-446.7-446.7z m172.6 487.3h-132v132c0 16.8-13.6 30.5-30.5 30.5-16.8 0-30.5-13.6-30.5-30.5v-132H339.4c-16.8 0-30.5-13.6-30.5-30.5 0-16.8 13.6-30.5 30.5-30.5h152.3v-152.3c0-16.8 13.6-30.5 30.5-30.5 16.8 0 30.5 13.6 30.5 30.5V363.7h132c16.8 0 30.5 13.6 30.5 30.5-0.1 16.8-13.8 30.4-30.6 30.4z"  horiz-adv-x="1024" />

    
    <glyph glyph-name="jiahao3" unicode="&#58902;" d="M512 896C230.4 896 0 665.6 0 384s230.4-512 512-512 512 230.4 512 512-230.4 512-512 512z m256-556.8H556.8V128H467.2V339.2H256V428.8h211.2V640h83.2v-211.2H768v-89.6z"  horiz-adv-x="1024" />

    
    <glyph glyph-name="check2" unicode="&#58887;" d="M512 896C228.894118 896 0 667.105882 0 384s228.894118-512 512-512 512 228.894118 512 512S795.105882 896 512 896z m295.152941-415.623529L484.894118 158.117647c-18.070588-18.070588-45.176471-18.070588-60.235294 0l-180.705883 180.705882c-18.070588 18.070588-18.070588 45.176471 0 60.235295 18.070588 18.070588 45.176471 18.070588 60.235294 0l150.588236-150.588236 292.141176 292.141177c18.070588 18.070588 45.176471 18.070588 60.235294 0 18.070588-15.058824 18.070588-42.164706 0-60.235294z"  horiz-adv-x="1024" />

    
    <glyph glyph-name="remove_circle_outlin" unicode="&#58883;" d="M21.333333 896v-1024M42.666667 896v-1024M64 896v-1024M85.333333 896v-1024M106.666667 896v-1024M128 896v-1024M149.333333 896v-1024M170.666667 896v-1024M192 896v-1024M213.333333 896v-1024M234.666667 896v-1024M256 896v-1024M277.333333 896v-1024M298.666667 896v-1024M320 896v-1024M341.333333 896v-1024M362.666667 896v-1024M384 896v-1024M405.333333 896v-1024M426.666667 896v-1024M448 896v-1024M469.333333 896v-1024M490.666667 896v-1024M512 896v-1024M533.333333 896v-1024M554.666667 896v-1024M576 896v-1024M597.333333 896v-1024M618.666667 896v-1024M640 896v-1024M661.333333 896v-1024M682.666667 896v-1024M704 896v-1024M725.333333 896v-1024M746.666667 896v-1024M768 896v-1024M789.333333 896v-1024M810.666667 896v-1024M832 896v-1024M853.333333 896v-1024M874.666667 896v-1024M896 896v-1024M917.333333 896v-1024M938.666667 896v-1024M960 896v-1024M981.333333 896v-1024M1002.666667 896v-1024M0 874.666667h1024M0 853.333333h1024M0 832h1024M0 810.666667h1024M0 789.333333h1024M0 768h1024M0 746.666667h1024M0 725.333333h1024M0 704h1024M0 682.666667h1024M0 661.333333h1024M0 640h1024M0 618.666667h1024M0 597.333333h1024M0 576h1024M0 554.666667h1024M0 533.333333h1024M0 512h1024M0 490.666667h1024M0 469.333333h1024M0 448h1024M0 426.666667h1024M0 405.333333h1024M0 384h1024M0 362.666667h1024M0 341.333333h1024M0 320h1024M0 298.666667h1024M0 277.333333h1024M0 256h1024M0 234.666667h1024M0 213.333333h1024M0 192h1024M0 170.666667h1024M0 149.333333h1024M0 128h1024M0 106.666667h1024M0 85.333333h1024M0 64h1024M0 42.666667h1024M0 21.333333h1024M0 0h1024M0-21.333333h1024M0-42.666667h1024M0-64h1024M0-85.333333h1024M0-106.666667h1024M512 42q140 0 241 101T854 384t-101 241T512 726t-241-101T170 384t101-241T512 42z m0 768q176 0 301-125T938 384t-125-301T512-42t-301 125T86 384t125 301T512 810z m-214-384h428v-84h-428v84z"  horiz-adv-x="1024" />

    
    <glyph glyph-name="thumb-down-o" unicode="&#59188;" d="M50.027 438.08c19.84 73.813 118.827 323.093 123.093 333.653 0.426 1.067 0.853 2.027 1.387 2.987 19.52 33.813 55.467 55.253 94.72 56.853 1.493 0.32 2.987 0.427 4.587 0.426h343.893c12.693 0 22.827-10.24 22.827-22.827 0-12.693-10.24-22.933-22.827-22.933H277.973c-1.28-0.214-2.667-0.427-4.053-0.427-24.532 0-46.4-12.267-58.773-32.64-8.853-22.188-102.507-258.774-120.747-327.04-16.32-61.013 20.053-123.947 81.067-140.373 8.533-2.24 18.027-3.306 29.653-3.307l137.6-0.533c7.573 0 14.507-3.734 18.88-9.92 4.267-6.187 5.227-14.08 2.453-21.227-13.44-35.2-21.333-117.76-21.333-221.013 0-37.973 30.827-68.8 68.693-68.8 37.973 0 68.8 30.827 68.8 68.8v22.827c0 151.788 123.307 275.093 275.093 275.093 12.693 0 22.827-10.24 22.827-22.933 0-12.587-10.24-22.933-22.827-22.933-126.4 0-229.227-102.827-229.227-229.227v-22.827c0-63.254-51.52-114.667-114.667-114.667s-114.56 51.413-114.56 114.667c0 54.401 2.133 145.6 15.573 206.4l-107.307 0.426c-15.679 0-28.8 1.6-41.387 4.907-85.653 22.933-136.64 111.04-113.707 196.587zM755.199 832h114.56c50.56 0 91.733-41.067 91.733-91.733v-366.72c0-50.56-41.067-91.733-91.733-91.733h-114.56c-12.693 0-22.934 10.347-22.933 22.933V809.067c0 12.693 10.347 22.934 22.933 22.933z m22.933-504.32h91.733c25.28 0 45.867 20.587 45.867 45.867v366.72c0 25.28-20.587 45.867-45.867 45.867h-91.733v-458.453z"  horiz-adv-x="1024" />

    
    <glyph glyph-name="back3" unicode="&#58901;" d="M604.583009-12.271239L207.114575 383.600935 604.583009 781.069369c9.577553 9.577553 9.577553 25.54014 0 35.117693L532.751364 888.018706c-9.577553 9.577553-25.54014 9.577553-35.117693 0L88.991426 479.376461c-3.192518-1.596259-4.788776-3.192518-7.981293-4.788776L9.178488 402.756041c-6.385035-6.385035-7.981294-15.962588-6.385035-23.943882 0-4.788776 3.192518-9.577553 6.385035-14.366329L81.010133 292.614186c1.596259-1.596259 4.788776-3.192518 6.385035-4.788777L496.037412-120.816836c9.577553-9.577553 25.54014-9.577553 35.117693 0l71.831645 71.831645c11.173811 11.173811 11.173811 27.136399 1.596259 36.713952z"  horiz-adv-x="1024" />

    
    <glyph glyph-name="thumb_down_" unicode="&#58906;" d="M630.776576 895.936004h155.542279a91.162302 91.162302 0 0 0 91.322292-91.418286c0-20.574714-6.847572-39.581526-18.366852-54.844573a91.386288 91.386288 0 0 0 68.571715-152.022498 91.1943 91.1943 0 0 0 59.51628-85.658647c0-23.262546-8.63946-44.47722-22.942566-60.604212a91.386288 91.386288 0 0 0-32.221986-177.076932h-219.122305c38.365602-183.476533 19.99875-402.24686-127.992001-402.24686s-70.71558 175.093057-127.992 283.886257c-57.27642 108.7932-164.565715 118.3926-164.565715 118.392601H72.923442a72.95544 72.95544 0 0 0-72.95544 72.827448V750.025123a72.763452 72.763452 0 0 0 73.083432 72.827449h219.474283l219.410287 73.147428h118.808574zM310.828573 310.820574s120.856446-26.462346 178.132867-135.255547-8.863446-266.991313 96.121992-266.991313c115.256796 0 128.023999 201.139429 84.122743 402.24686h263.535529c30.334104 0 54.588588 24.542466 54.588588 54.844572 0 30.494094-24.446472 54.844572-54.588588 54.844572h-128.247985v36.573714h91.674271c30.334104 0 54.588588 24.574464 54.588588 54.844572 0 30.494094-24.446472 54.844572-54.588588 54.844573h-128.247985V603.346291h91.67427c30.334104 0 54.588588 24.574464 54.588589 54.844572 0 30.494094-24.446472 54.844572-54.588589 54.844572h-128.247984V749.609149h54.780576a54.87657 54.87657 0 1 1 0 109.689145h-274.190863L292.525717 786.150866H73.211424c-20.670708 0-36.669708-16.350978-36.669708-36.509719v-402.374851c0-20.15874 16.382976-36.509718 36.573714-36.509718h237.713143z"  horiz-adv-x="1024" />

    
    <glyph glyph-name="arrow-right" unicode="&#58898;" d="M329.525 704.453l56.285 58.261 393.996-392.021-393.996-392.021-56.285 58.261 331.786 333.761z"  horiz-adv-x="1024" />

    
    <glyph glyph-name="zan1" unicode="&#58897;" d="M801.936 546.877c-24.162 1.57-104.31-12.424-146.502-16.172 3.239 23.676 11.199 45.863 22.341 86.44 12.048 43.88 31.382 86.981 24.9 137.975-11.004 86.57-110.345 108.47-140.193 25.071-2.14-5.977-42.296-102.67-42.296-102.67-32.625-53.12-33.428-63.787-112.564-120.409-68.173-48.778-82.536-61.98-94.996-72.316-8.541-7.085-17.742-20.801-17.742-31.877v-351.382c0-11.733 5.639-22.739 15.156-29.597 52.219-37.616 236.396-68.14 328.931-68.14 48.129 0 75.233-1.292 113.164 19.829 20.28 11.292 22.852 28.653 32.746 37.862 46.416 43.21 32.937 101.366 44.248 112.821 52.625 53.296 41.784 117.722 49.116 135.069 20.978 49.63 13.037 48.193 22.44 82.467 31.722 115.633-16.988 149.717-98.749 155.030zM169.214 516.382c-32.738 0-59.274-26.524-59.274-59.266v-358.659c0-32.736 26.537-59.275 59.274-59.275 32.731 0 59.27 26.539 59.27 59.275v358.659c0 32.742-26.538 59.266-59.27 59.266v0 0zM169.214 516.382z"  horiz-adv-x="1024" />

    
    <glyph glyph-name="jiahao4" unicode="&#59020;" d="M512 845.824C257.024 845.824 50.176 638.976 50.176 384s206.848-462.336 462.336-462.336 462.336 206.848 462.336 462.336S766.976 845.824 512 845.824z m268.8-481.28h-249.344v-249.344c0-10.752-8.704-19.456-19.456-19.456s-19.456 8.704-19.456 19.456v249.344H243.2c-10.752 0-19.456 8.704-19.456 19.456s8.704 19.456 19.456 19.456h249.344V652.8c0 10.752 8.704 19.456 19.456 19.456s19.456-8.704 19.456-19.456v-249.344h249.344c10.752 0 19.456-8.704 19.456-19.456s-9.216-19.456-19.456-19.456z"  horiz-adv-x="1024" />

    
    <glyph glyph-name="back4" unicode="&#58885;" d="M182.857143 384l512 512 97.499428-97.499429L377.929143 384l414.427428-414.500571L694.857143-128z"  horiz-adv-x="1024" />

    
    <glyph glyph-name="jiahao5" unicode="&#58881;" d="M512-62.01661100000001c-119.648434 0-232.1288 46.367961-316.736783 130.559656-84.640667 84.255342-131.263217 196.255772-131.263217 315.455235 0 119.168499 46.624271 231.199892 131.232254 315.424271 84.607983 84.191695 197.088348 130.559656 316.736783 130.559656s232.1288-46.367961 316.704099-130.559656c84.67163-84.224378 131.263217-196.255772 131.263217-315.391587 0.032684-119.199462-46.591587-231.232576-131.263217-315.455235C744.1288-15.615965999999958 631.648434-62.01661100000001 512-62.01661100000001zM512 766.016611c-102.623626 0-199.071738-39.743475-271.583282-111.936783-72.480581-72.12794-112.416718-168.063432-112.416718-270.079828s39.903454-197.951888 112.384034-270.047144c72.511544-72.191587 168.959656-111.936783 271.583282-111.936783 102.592662 0 199.071738 39.743475 271.583282 111.936783 72.480581 72.160624 112.416718 168.063432 112.384034 270.079828 0 102.016396-39.903454 197.919204-112.384034 270.016181C711.071738 726.240452 614.592662 766.016611 512 766.016611zM736.00086 415.99914L544.00086 415.99914 544.00086 607.99914c0 17.664722-14.336138 32.00086-32.00086 32.00086s-32.00086-14.336138-32.00086-32.00086l0-192L288.00086 415.99914c-17.664722 0-32.00086-14.336138-32.00086-32.00086s14.336138-32.00086 32.00086-32.00086l192 0 0-192c0-17.695686 14.336138-32.00086 32.00086-32.00086s32.00086 14.303454 32.00086 32.00086L544.00258 351.99914l192 0c17.695686 0 32.00086 14.336138 32.00086 32.00086S753.696546 415.99914 736.00086 415.99914z"  horiz-adv-x="1024" />

    
    <glyph glyph-name="thumb_down2" unicode="&#58903;" d="M21.333333 896v-1024M42.666667 896v-1024M64 896v-1024M85.333333 896v-1024M106.666667 896v-1024M128 896v-1024M149.333333 896v-1024M170.666667 896v-1024M192 896v-1024M213.333333 896v-1024M234.666667 896v-1024M256 896v-1024M277.333333 896v-1024M298.666667 896v-1024M320 896v-1024M341.333333 896v-1024M362.666667 896v-1024M384 896v-1024M405.333333 896v-1024M426.666667 896v-1024M448 896v-1024M469.333333 896v-1024M490.666667 896v-1024M512 896v-1024M533.333333 896v-1024M554.666667 896v-1024M576 896v-1024M597.333333 896v-1024M618.666667 896v-1024M640 896v-1024M661.333333 896v-1024M682.666667 896v-1024M704 896v-1024M725.333333 896v-1024M746.666667 896v-1024M768 896v-1024M789.333333 896v-1024M810.666667 896v-1024M832 896v-1024M853.333333 896v-1024M874.666667 896v-1024M896 896v-1024M917.333333 896v-1024M938.666667 896v-1024M960 896v-1024M981.333333 896v-1024M1002.666667 896v-1024M0 874.666667h1024M0 853.333333h1024M0 832h1024M0 810.666667h1024M0 789.333333h1024M0 768h1024M0 746.666667h1024M0 725.333333h1024M0 704h1024M0 682.666667h1024M0 661.333333h1024M0 640h1024M0 618.666667h1024M0 597.333333h1024M0 576h1024M0 554.666667h1024M0 533.333333h1024M0 512h1024M0 490.666667h1024M0 469.333333h1024M0 448h1024M0 426.666667h1024M0 405.333333h1024M0 384h1024M0 362.666667h1024M0 341.333333h1024M0 320h1024M0 298.666667h1024M0 277.333333h1024M0 256h1024M0 234.666667h1024M0 213.333333h1024M0 192h1024M0 170.666667h1024M0 149.333333h1024M0 128h1024M0 106.666667h1024M0 85.333333h1024M0 64h1024M0 42.666667h1024M0 21.333333h1024M0 0h1024M0-21.333333h1024M0-42.666667h1024M0-64h1024M0-85.333333h1024M0-106.666667h1024M810 768h172v-512h-172V768zM640 768q34 0 60-26t26-60V256q0-34-26-60L420-86 374-40Q356-22 356 4v14l42 196H128q-34 0-60 25T42 298l2 4h-2V384q0 16 6 32l130 300q20 52 78 52h384z"  horiz-adv-x="1024" />

    


  </font>
</defs>
</svg>
